<?xml version="1.0" encoding="iso-8859-1"?>
<!-- Generator: Adobe Illustrator 19.0.0, SVG Export Plug-In . SVG Version: 6.00 Build 0)  -->
<svg version="1.1" id="Layer_1" xmlns="http://www.w3.org/2000/svg" xmlns:xlink="http://www.w3.org/1999/xlink" x="0px" y="0px"
	 viewBox="0 0 512 512" style="enable-background:new 0 0 512 512;" xml:space="preserve">
<g>
	<g>
		<path d="M442.368,0H84.528C60.24,0,32,19.712,32,45.152V496c0,8.848,7.168,16,16,16h416c8.832,0,16-7.152,16-16V45.152
			C480,11.856,460.56,0,442.368,0z M448,480H64V45.152C64,40.08,75.216,32,84.528,32h357.84c1.84,0,5.632,0,5.632,13.152V480z"/>
	</g>
</g>
<g>
	<g>
		<path d="M464,416H48c-8.832,0-16,7.152-16,16c0,8.848,7.168,16,16,16h416c8.832,0,16-7.152,16-16C480,423.152,472.832,416,464,416
			z"/>
	</g>
</g>
<g>
	<g>
		<path d="M464,112H48c-8.832,0-16,7.152-16,16s7.168,16,16,16h416c8.832,0,16-7.152,16-16C480,119.152,472.832,112,464,112z"/>
	</g>
</g>
<g>
	<g>
		<path d="M400,160H112c-8.832,0-16,7.152-16,16s7.168,16,16,16h288c8.832,0,16-7.152,16-16S408.832,160,400,160z"/>
	</g>
</g>
<g>
	<g>
		<path d="M142.944,48.224c-13.616,0-24.688,11.056-24.688,24.672s11.072,24.688,24.688,24.688c13.6,0,24.688-11.072,24.688-24.688
			C167.632,59.28,156.56,48.224,142.944,48.224z M142.944,80.224c-4.032,0-7.312-3.28-7.312-7.328c0-4.032,3.28-7.312,7.312-7.312
			c4.032,0,7.312,3.28,7.312,7.312C150.256,76.944,146.976,80.224,142.944,80.224z"/>
	</g>
</g>
<g>
	<g>
		<path d="M222.784,48.224c-13.616,0-24.688,11.056-24.688,24.672s11.072,24.688,24.688,24.688c13.6,0,24.688-11.072,24.688-24.688
			C247.472,59.28,236.4,48.224,222.784,48.224z M222.784,80.224c-4.032,0-7.312-3.28-7.312-7.328c0-4.032,3.28-7.312,7.312-7.312
			s7.312,3.28,7.312,7.312C230.096,76.944,226.816,80.224,222.784,80.224z"/>
	</g>
</g>
<g>
	<g>
		<path d="M304.336,48.224c-13.616,0-24.688,11.056-24.688,24.672s11.072,24.688,24.688,24.688c13.6,0,24.688-11.072,24.688-24.688
			C329.024,59.28,317.952,48.224,304.336,48.224z M304.336,80.224c-4.032,0-7.312-3.28-7.312-7.328c0-4.032,3.28-7.312,7.312-7.312
			c4.016,0,7.312,3.28,7.312,7.312C311.648,76.944,308.368,80.224,304.336,80.224z"/>
	</g>
</g>
<g>
	<g>
		<path d="M384.304,48.224c-13.6,0-24.672,11.056-24.672,24.672s11.072,24.688,24.672,24.688c13.6,0,24.688-11.072,24.688-24.688
			C408.992,59.28,397.92,48.224,384.304,48.224z M384.304,80.224c-4.032,0-7.312-3.28-7.312-7.328c0-4.032,3.28-7.312,7.312-7.312
			c4.032,0,7.328,3.28,7.328,7.312C391.632,76.944,388.336,80.224,384.304,80.224z"/>
	</g>
</g>
<g>
	<g>
		<path d="M400,208H112c-8.832,0-16,7.152-16,16v160c0,8.848,7.168,16,16,16h288c8.832,0,16-7.152,16-16V224
			C416,215.152,408.832,208,400,208z M384,368H128V240h256V368z"/>
	</g>
</g>
<g>
</g>
<g>
</g>
<g>
</g>
<g>
</g>
<g>
</g>
<g>
</g>
<g>
</g>
<g>
</g>
<g>
</g>
<g>
</g>
<g>
</g>
<g>
</g>
<g>
</g>
<g>
</g>
<g>
</g>
</svg>
