<?xml version="1.0" standalone="no"?>
<!DOCTYPE svg PUBLIC "-//W3C//DTD SVG 20010904//EN"
 "http://www.w3.org/TR/2001/REC-SVG-20010904/DTD/svg10.dtd">
<svg version="1.0" xmlns="http://www.w3.org/2000/svg"
 width="512.000000pt" height="512.000000pt" viewBox="0 0 512.000000 512.000000"
 preserveAspectRatio="xMidYMid meet">

<g transform="translate(0.000000,512.000000) scale(0.100000,-0.100000)"
fill="#000000" stroke="none">
<path d="M965 5106 c-37 -16 -70 -52 -84 -89 -7 -17 -11 -128 -11 -286 0 -256
0 -258 23 -279 31 -29 77 -29 105 1 21 23 22 30 22 270 l0 247 1080 0 1080 0
0 -765 c0 -539 3 -771 11 -788 11 -24 47 -47 73 -47 7 0 25 9 40 21 l26 20 0
797 c0 898 5 843 -76 889 l-39 23 -1110 -1 c-903 0 -1116 -2 -1140 -13z"/>
<path d="M1115 4875 l-25 -24 0 -1236 0 -1236 25 -24 24 -25 799 0 c793 0 799
0 826 21 34 27 36 77 3 107 l-23 22 -752 0 -752 0 0 64 0 65 57 7 c32 4 132 3
223 -2 308 -17 409 -5 542 62 98 49 174 130 270 285 42 68 98 146 125 173 86
88 233 136 413 136 l90 0 0 -58 c0 -54 -3 -61 -36 -93 -55 -52 -77 -103 -82
-190 -5 -91 11 -135 89 -241 65 -87 70 -121 35 -239 -13 -47 -28 -109 -32
-137 l-7 -52 -953 0 -954 0 0 981 c0 620 -4 987 -10 999 -25 47 -123 38 -135
-12 -3 -13 -4 -472 -3 -1020 3 -989 3 -997 24 -1024 11 -15 33 -37 48 -48 27
-21 35 -21 1026 -24 l999 -2 6 -21 c4 -11 40 -65 81 -119 40 -54 79 -111 85
-126 6 -16 17 -92 24 -169 8 -77 20 -160 28 -185 8 -25 18 -66 22 -92 l6 -48
-66 0 c-117 0 -185 -54 -193 -153 -3 -44 116 -980 134 -1054 9 -35 75 -104
118 -124 37 -17 72 -19 381 -19 204 0 355 4 377 10 21 6 51 22 67 36 67 56 67
55 142 601 38 280 69 522 69 539 0 51 -41 115 -90 141 -24 13 -55 23 -70 23
l-27 0 -8 117 c-16 225 -11 239 104 289 86 37 104 53 104 93 0 34 -17 59 -50
72 -33 12 -186 -50 -236 -96 -76 -70 -90 -139 -73 -362 l9 -113 -91 0 -92 0 0
86 c0 314 121 648 328 907 78 98 88 131 52 167 -12 12 -33 20 -54 20 -29 0
-42 -9 -86 -58 -28 -31 -79 -97 -112 -147 -166 -248 -262 -540 -275 -842 l-6
-133 -98 0 -97 0 -11 31 c-14 40 -14 152 -1 201 6 21 34 72 63 113 92 134 101
153 101 219 1 53 -6 75 -48 164 -44 93 -47 105 -36 132 14 33 52 60 164 114
112 54 152 99 225 248 66 135 99 174 180 212 66 30 171 28 231 -3 80 -41 120
-89 134 -160 10 -53 -10 -105 -69 -178 -92 -114 -116 -187 -100 -308 12 -96
76 -135 131 -80 23 23 24 29 18 98 -8 89 2 115 80 212 65 80 90 145 90 230 0
89 -27 156 -91 225 -163 176 -426 184 -607 19 -40 -37 -68 -75 -106 -149 -57
-112 -58 -113 -118 -35 -41 53 -52 91 -52 175 0 228 -139 374 -367 388 l-83 5
0 818 0 818 -26 20 c-27 21 -31 21 -986 21 l-959 0 -24 -25z m1845 -790 l0
-665 -97 0 c-117 -1 -224 -19 -314 -53 -139 -53 -219 -125 -324 -293 -131
-211 -175 -254 -305 -296 -57 -18 -83 -21 -210 -18 -80 2 -218 4 -308 4 l-162
1 0 993 0 992 860 0 860 0 0 -665z m320 -1036 c97 -44 120 -86 130 -235 10
-134 32 -192 107 -281 l53 -63 -61 -30 c-34 -17 -64 -29 -67 -26 -3 4 -19 34
-36 69 -36 72 -69 92 -114 66 -48 -27 -50 -57 -7 -158 35 -85 37 -93 24 -123
-27 -65 -17 -134 35 -242 31 -63 46 -106 42 -120 -3 -12 -21 -43 -39 -69 l-34
-48 -12 47 c-17 68 -45 117 -126 226 -104 138 -110 168 -66 340 51 193 43 238
-65 387 -47 64 -54 79 -54 121 0 126 155 200 290 139z m816 -1862 c3 -8 -25
-230 -61 -495 -36 -265 -65 -486 -65 -492 0 -5 -9 -19 -20 -30 -19 -19 -33
-20 -348 -20 -308 0 -330 1 -346 19 -13 14 -29 114 -72 427 -30 225 -59 436
-64 469 -5 33 -10 77 -10 98 l0 37 490 0 c401 0 492 -2 496 -13z"/>
<path d="M1635 4641 c-56 -15 -113 -50 -153 -96 -129 -147 -82 -375 95 -462
192 -93 423 50 423 263 0 33 -7 81 -16 107 -20 60 -84 132 -146 163 -53 27
-151 39 -203 25z m135 -159 c109 -54 107 -213 -3 -262 -53 -24 -71 -24 -124 0
-110 49 -112 208 -3 262 19 10 49 18 65 18 17 0 46 -8 65 -18z"/>
<path d="M820 1891 c-93 -29 -169 -94 -209 -180 -21 -46 -26 -71 -26 -136 0
-101 32 -172 106 -239 58 -52 117 -75 217 -83 39 -3 72 -10 72 -15 0 -6 -65
-268 -145 -582 -80 -315 -145 -581 -145 -590 0 -25 45 -66 73 -66 56 0 67 22
131 275 l61 238 185 63 c102 34 229 78 284 96 l98 33 277 -94 c152 -52 280
-97 284 -101 5 -4 35 -113 67 -241 62 -247 72 -269 127 -269 29 0 73 42 73 70
0 12 -65 278 -145 592 -80 315 -145 575 -145 578 0 4 35 10 78 13 99 6 173 40
234 105 149 159 100 415 -97 513 l-50 24 -690 2 c-379 1 -701 -2 -715 -6z
m1400 -164 c125 -66 116 -250 -16 -308 -41 -19 -72 -19 -696 -17 -638 3 -654
3 -688 24 -95 55 -118 181 -47 261 57 65 27 62 748 63 l656 0 43 -23z m-311
-509 c16 -53 52 -200 49 -203 -2 -1 -100 -35 -219 -76 l-217 -74 -203 69
c-112 38 -211 73 -221 77 -17 9 -16 14 33 202 l10 37 379 0 378 0 11 -32z
m-744 -389 c64 -23 114 -43 113 -45 -9 -8 -270 -95 -274 -91 -5 4 37 177 42
177 2 0 55 -19 119 -41z m854 -45 c12 -48 20 -88 18 -90 -2 -2 -66 17 -143 43
-76 25 -134 48 -129 50 20 8 220 80 226 82 4 0 16 -38 28 -85z"/>
</g>
</svg>
