<?xml version="1.0" standalone="no"?>
<!DOCTYPE svg PUBLIC "-//W3C//DTD SVG 20010904//EN"
 "http://www.w3.org/TR/2001/REC-SVG-20010904/DTD/svg10.dtd">
<svg version="1.0" xmlns="http://www.w3.org/2000/svg"
 width="512.000000pt" height="512.000000pt" viewBox="0 0 512.000000 512.000000"
 preserveAspectRatio="xMidYMid meet">

<g transform="translate(0.000000,512.000000) scale(0.100000,-0.100000)"
fill="#000000" stroke="none">
<path d="M2430 5114 c-273 -30 -452 -80 -650 -179 -174 -87 -303 -179 -448
-319 -203 -196 -364 -455 -450 -726 -79 -248 -107 -559 -56 -626 35 -48 70
-67 128 -72 46 -4 62 0 100 22 60 35 86 89 86 182 0 79 20 219 45 314 71 276
230 533 448 721 189 164 399 266 657 320 84 17 139 22 270 22 131 0 186 -5
270 -22 325 -68 593 -223 801 -464 267 -308 384 -692 339 -1112 -20 -185 -87
-360 -192 -500 -29 -38 -152 -171 -273 -295 -304 -309 -425 -467 -519 -672
-97 -213 -141 -412 -155 -705 -8 -160 -12 -189 -38 -265 -81 -235 -306 -398
-548 -398 -135 0 -294 63 -394 156 -116 107 -175 229 -191 389 -12 133 -44
182 -132 206 -74 20 -148 -13 -187 -82 -22 -39 -23 -49 -18 -148 12 -219 102
-421 259 -580 343 -346 876 -374 1252 -65 211 173 335 441 336 727 1 310 78
577 232 805 71 105 147 192 368 417 211 215 250 260 327 375 68 102 108 183
148 303 47 141 66 255 72 443 10 295 -38 542 -155 799 -245 537 -739 914
-1322 1011 -85 14 -345 26 -410 18z"/>
<path d="M2460 4305 c-254 -51 -496 -210 -632 -416 -80 -122 -124 -228 -158
-389 -18 -83 -20 -118 -15 -280 11 -349 14 -368 67 -416 39 -36 64 -44 131
-44 197 0 352 -89 430 -249 30 -62 32 -72 32 -176 0 -103 -2 -114 -32 -177
-44 -94 -109 -160 -202 -206 -72 -36 -79 -37 -180 -37 -99 0 -111 2 -179 33
-96 44 -131 49 -188 27 -67 -25 -104 -81 -104 -155 0 -73 26 -113 100 -158 96
-57 198 -84 341 -90 105 -4 139 -1 209 17 228 58 405 200 505 406 59 123 78
205 78 340 -1 234 -101 444 -280 590 -75 62 -214 130 -310 151 l-75 16 4 192
c4 175 6 196 30 258 38 101 85 174 158 248 76 75 148 120 252 158 66 24 86 27
208 26 155 0 214 -15 334 -86 181 -106 295 -291 315 -511 10 -104 25 -142 71
-180 52 -44 146 -48 200 -9 54 40 70 78 70 168 0 395 -283 783 -665 912 -153
52 -366 67 -515 37z"/>
</g>
</svg>
