<svg xmlns="http://www.w3.org/2000/svg" width="60" height="60" viewBox="0 0 60 60">
  <g id="Grupo_857" data-name="Grupo 857" transform="translate(-34 -985)">
    <g id="Grupo_856" data-name="Grupo 856" transform="translate(34 985)">
      <circle id="Elipse_315" data-name="Elipse 315" cx="30" cy="30" r="30" fill="#0d9f16"/>
      <g id="whatsapp-logo_icon-icons.com_57054" transform="translate(11.986 11.985)">
        <path id="WhatsApp" d="M36.03,17.551A17.717,17.717,0,0,1,9.793,32.918L0,36.03l3.193-9.417A17.366,17.366,0,0,1,.655,17.551a17.688,17.688,0,0,1,35.375,0ZM18.342,2.8A14.83,14.83,0,0,0,3.472,17.551,14.6,14.6,0,0,0,6.3,26.2l-1.858,5.48,5.715-1.816A14.885,14.885,0,0,0,33.214,17.552,14.831,14.831,0,0,0,18.342,2.8Zm8.932,18.8c-.109-.179-.4-.287-.831-.5s-2.566-1.256-2.962-1.4-.687-.215-.976.215-1.12,1.4-1.373,1.686-.506.324-.94.108a11.867,11.867,0,0,1-3.486-2.135,12.97,12.97,0,0,1-2.412-2.979c-.253-.43-.026-.663.19-.877.2-.193.434-.5.651-.753a2.884,2.884,0,0,0,.433-.718.784.784,0,0,0-.036-.754c-.108-.215-.976-2.332-1.337-3.193s-.722-.717-.975-.717-.542-.036-.831-.036a1.6,1.6,0,0,0-1.157.538,4.811,4.811,0,0,0-1.517,3.588,8.324,8.324,0,0,0,1.77,4.449c.217.287,3,4.772,7.406,6.495s4.408,1.147,5.2,1.075a4.385,4.385,0,0,0,2.927-2.044A3.586,3.586,0,0,0,27.274,21.593Z" fill="#fff"/>
      </g>
    </g>
  </g>
</svg>
