<?xml version="1.0" encoding="iso-8859-1"?>
<!-- Generator: Adobe Illustrator 18.0.0, SVG Export Plug-In . SVG Version: 6.00 Build 0)  -->
<!DOCTYPE svg PUBLIC "-//W3C//DTD SVG 1.1//EN" "http://www.w3.org/Graphics/SVG/1.1/DTD/svg11.dtd">
<svg version="1.1" id="Capa_1" xmlns="http://www.w3.org/2000/svg" xmlns:xlink="http://www.w3.org/1999/xlink" x="0px" y="0px"
	 viewBox="0 0 60 60" style="enable-background:new 0 0 60 60;" xml:space="preserve">
<g>
	<path d="M48,0H14v22h34V0z M46,20H16V2h30V20z"/>
	<path d="M54,34.074H32c-5.071,0-6.07-1.193-7.885-3.361c-0.216-0.257-0.439-0.524-0.679-0.801C20.729,26.79,16.873,25,12.858,25
		c-3.063,0-5.895,1.042-8.188,3.013c-0.233,0.199-0.452,0.406-0.659,0.617C2.069,30.603,1,33.352,1,36.37v4.32
		C0.369,41.64,0,42.777,0,44c0,1.04,0.281,2.042,0.803,2.946C0.299,47.672,0,48.551,0,49.5c0,2.31,1.756,4.197,4,4.449V59
		c0,0.553,0.447,1,1,1h2c0.43,0,0.812-0.274,0.948-0.683L9.728,54H51.28l1.772,5.316C53.187,59.725,53.569,60,54,60h2
		c0.553,0,1-0.447,1-1v-5.276c1.72-0.613,2.96-2.229,2.992-4.149H60v-9.5C60,36.766,57.309,34.074,54,34.074z M3,36.37
		c0-2.454,0.889-4.764,2.437-6.338c0.168-0.17,0.346-0.338,0.535-0.501C7.899,27.875,10.28,27,12.858,27
		c3.435,0,6.739,1.539,9.066,4.223c0.231,0.267,0.448,0.525,0.657,0.774c1.907,2.278,3.413,4.077,9.418,4.077h22
		c2.206,0,4,1.794,4,4v5.688C57.284,45.282,56.425,45,55.5,45H11.907c0.002-0.01,0.001-0.021,0.003-0.031
		C11.964,44.648,12,44.326,12,44c0-3.309-2.691-6-6-6c-0.244,0-0.483,0.019-0.72,0.047c-0.073,0.009-0.144,0.022-0.216,0.033
		c-0.17,0.027-0.337,0.06-0.501,0.101c-0.072,0.018-0.144,0.035-0.215,0.055c-0.21,0.06-0.415,0.129-0.615,0.211
		c-0.014,0.006-0.029,0.01-0.043,0.016c-0.228,0.096-0.447,0.208-0.66,0.33C3.02,38.799,3.009,38.803,3,38.809V36.37z M2.802,41.625
		c0.18-0.242,0.386-0.454,0.605-0.646c0.034-0.029,0.069-0.057,0.104-0.086c0.185-0.151,0.384-0.278,0.59-0.392
		c0.065-0.035,0.128-0.074,0.195-0.106c0.194-0.093,0.398-0.163,0.605-0.223c0.076-0.022,0.148-0.053,0.226-0.07
		C5.41,40.039,5.702,40,6,40c2.206,0,4,1.794,4,4c0,0.336-0.049,0.67-0.138,1H4.5c-0.786,0-1.515,0.22-2.158,0.576
		C2.12,45.078,2,44.546,2,44c0-0.8,0.241-1.542,0.647-2.167L2.802,41.625z"/>
	<path d="M26.086,11.844C28.047,11.313,37.354,8.897,44.021,9H45V3H17v5.461l1.335,0.593C18.932,9.217,22.321,10.172,26.086,11.844z
		"/>
	<path d="M28.883,13.198c2.155,1.144,4.242,2.513,5.824,4.095L36.677,19H45v-8h-1C39.107,10.92,32.49,12.326,28.883,13.198z"/>
	<path d="M33.345,18.756c-4.91-4.907-15.495-7.761-15.602-7.789l-0.149-0.053L17,10.65V19h16.626L33.345,18.756z"/>
</g>
<g>
</g>
<g>
</g>
<g>
</g>
<g>
</g>
<g>
</g>
<g>
</g>
<g>
</g>
<g>
</g>
<g>
</g>
<g>
</g>
<g>
</g>
<g>
</g>
<g>
</g>
<g>
</g>
<g>
</g>
</svg>
