<?xml version="1.0" encoding="utf-8"?>
<!-- Generator: Adobe Illustrator 24.3.0, SVG Export Plug-In . SVG Version: 6.00 Build 0)  -->
<svg version="1.1" id="Capa_1" xmlns="http://www.w3.org/2000/svg" xmlns:xlink="http://www.w3.org/1999/xlink" x="0px" y="0px"
	 viewBox="0 0 1000 1000" style="enable-background:new 0 0 1000 1000;" xml:space="preserve">
<style type="text/css">
	.st0{fill:#1A1A1A;}
	.st1{filter:url(#Adobe_OpacityMaskFilter);}
	.st2{opacity:0.15;mask:url(#SVGID_1_);}
	.st3{fill:#010101;}
	.st4{fill:#FFFFFF;}
	.st5{filter:url(#Adobe_OpacityMaskFilter_1_);}
	.st6{opacity:0.15;mask:url(#SVGID_2_);}
	.st7{fill:#E0CD95;}
	.st8{filter:url(#Adobe_OpacityMaskFilter_2_);}
	.st9{opacity:0.15;mask:url(#SVGID_3_);}
	.st10{filter:url(#Adobe_OpacityMaskFilter_3_);}
	.st11{opacity:0.15;mask:url(#SVGID_4_);}
	.st12{opacity:0.1;}
	.st13{filter:url(#Adobe_OpacityMaskFilter_4_);}
	.st14{opacity:0.15;mask:url(#SVGID_5_);}
	.st15{filter:url(#Adobe_OpacityMaskFilter_5_);}
	.st16{opacity:0.15;mask:url(#SVGID_6_);}
	.st17{fill:#EBEBEB;}
	.st18{fill:#BCBCBC;}
</style>
<g>
	<g>
		<g>
			<path class="st17" d="M337.25,535.63c-2.94-0.18-5.85-0.5-8.69-0.97c-0.03-0.01-0.07-0.01-0.1-0.02c0,0-3.74-0.57-10.23-2.19
				c-6.49-1.63-15.15-4.45-15.15-4.45c-1.22-0.32-2.32-0.6-3.35-0.84v0c-0.02-0.01-0.04-0.01-0.07-0.01
				c-0.06-0.01-0.11-0.03-0.17-0.04c-0.07-0.02-0.13-0.03-0.2-0.04c-0.05-0.01-0.09-0.02-0.14-0.03c-0.07-0.02-0.15-0.03-0.22-0.05
				c-0.04-0.01-0.07-0.02-0.11-0.02c-0.08-0.02-0.16-0.04-0.25-0.05c-0.03-0.01-0.05-0.01-0.08-0.02c-0.09-0.02-0.18-0.04-0.26-0.06
				c-0.02,0-0.04-0.01-0.06-0.01c-0.09-0.02-0.19-0.04-0.28-0.06c-0.02,0-0.03-0.01-0.05-0.01c-0.1-0.02-0.19-0.04-0.29-0.06
				c-0.01,0-0.02,0-0.03-0.01c-0.1-0.02-0.2-0.04-0.29-0.06c0,0-0.01,0-0.01,0l0,0c-2.69-0.51-5.09-0.71-8.31-0.71
				c-0.23,0-0.45-0.01-0.65-0.02v0.04c-0.31,0.02-0.62,0.03-0.93,0.06c-3.04,0.16-6.05,0.64-8.98,1.44h-0.45v-4.32v-64.7h-14.34
				l1.18,9.03v59.99h0v12.68c0.45-0.3,1.3-0.93,2.56-1.89c1.25-0.96,2.44-1.79,3.5-2.45c1.07-0.66,2.45-1.43,4.12-2.28
				c1.83-0.91,3.75-1.64,5.73-2.17c2.29-0.61,4.64-0.99,7.01-1.11c0,0,3.23-0.15,7.14,0.36c3.92,0.51,6.88,1.7,6.88,1.7
				c0.59,0.18,1.49,0.5,2.67,0.95c1.21,0.45,2.07,0.8,2.67,1.06c0.6,0.26,1.53,0.64,2.73,1.11c1.19,0.47,2.11,0.83,2.73,1.06
				c0.15,0.06,0.3,0.12,0.45,0.18c8.49,3.66,18.55,5.82,29.66,5.82v-6.67C342.6,535.79,340.63,535.85,337.25,535.63z"/>
			<path class="st17" d="M359.9,457.54c-23.17,0-42.81,16.69-42.81,36.03c0,21.99,21.8,35.34,42.02,35.34
				c23.27,0,43.98-16.79,43.98-36.13C403.1,470.79,380.12,457.54,359.9,457.54z M355.77,524.2c-14.73,0-24.84-10.6-24.84-25.72
				c0-16.79,11.98-36.13,32.2-36.13c14.92,0,26.21,10.11,26.21,25.53C389.35,504.76,376.19,524.2,355.77,524.2z"/>
			<path class="st17" d="M609.18,458.42c1.47,2.16,2.06,7.27,2.06,9.62c0,15.51-24.84,27.69-24.84,43c0,9.13,8.84,17.48,23.96,17.48
				c15.81,0,26.61-9.03,28.57-17.38l8.64,16.4h14.23l-37.01-69.12H609.18z M634.31,508.1L634.31,508.1
				c0,8.54-8.54,12.76-17.18,12.76c-8.64,0-17.28-4.22-17.28-12.76c0.18-4.11,1.36-8.12,3.43-11.68l13.85-25.72l13.74,25.72
				C632.94,499.98,634.12,503.99,634.31,508.1z"/>
			<path class="st17" d="M688.9,502.7c6.81,3.08,14.22,4.62,21.69,4.51c14.82,0,25.23-11.68,25.23-23.96
				c0-13.94-13.35-24.84-32.5-24.84h-33.09v69.12h14.34l-1.18-9.03v-16.1c8.44,14.24,28.08,25.13,53.02,25.13v-6.67
				C716.78,520.87,697.83,514.38,688.9,502.7z M683.4,487.68L683.4,487.68l0-24.74h19.44c13.94,0,18.46,10.9,18.46,19.73
				c0,13.06-9.82,18.85-18.65,18.85C693.61,501.52,683.4,497.69,683.4,487.68z"/>
			<path class="st17" d="M483.8,458.42h-16c2.16,1.18,3.53,2.85,3.53,5.3c0,4.12-3.63,9.62-8.05,15.02l-12.47,14.14l-29.55-34.46
				h-16.2l37.11,42.71v26.41h14.33l-1.18-7.07v-19.54c0-13.15,29.46-26.31,29.46-39.37C484.79,460.44,484.45,459.34,483.8,458.42
				L483.8,458.42z"/>
			<path class="st17" d="M537.6,505.74c-11.19-12.86-28.28-24.74-28.28-47.32h-13.74v69.12h6.67l-1.18-9.03v-36.22
				c8.15,17.28,23.96,24.74,28.86,37.31h5.6c5.4-13.85,23.96-24.75,31.03-44.68l-2.45,10.6v32.99l-1.18,9.03h14.53v-69.12h-13.75
				C563.72,481,548.7,492.88,537.6,505.74z"/>
		</g>
	</g>
</g>
</svg>
