<?xml version="1.0" standalone="no"?>
<!DOCTYPE svg PUBLIC "-//W3C//DTD SVG 20010904//EN"
 "http://www.w3.org/TR/2001/REC-SVG-20010904/DTD/svg10.dtd">
<svg version="1.0" xmlns="http://www.w3.org/2000/svg"
 width="512.000000pt" height="512.000000pt" viewBox="0 0 512.000000 512.000000"
 preserveAspectRatio="xMidYMid meet">

<g transform="translate(0.000000,512.000000) scale(0.100000,-0.100000)"
fill="#000000" stroke="none">
<path d="M665 4935 c-24 -23 -25 -29 -25 -163 l0 -138 -52 -24 c-241 -109
-250 -446 -16 -569 l68 -36 0 -86 0 -85 -52 -24 c-241 -109 -250 -446 -16
-569 l68 -36 0 -86 0 -85 -52 -24 c-241 -109 -250 -446 -16 -569 l68 -36 0
-46 c0 -45 0 -46 -52 -69 -241 -109 -250 -446 -16 -569 l68 -36 0 -258 0 -258
25 -24 c20 -21 34 -25 80 -25 l55 0 0 -135 c0 -131 1 -137 25 -160 l24 -25
1031 0 1031 0 -30 -53 c-27 -47 -35 -81 -66 -287 -33 -215 -34 -235 -20 -257
22 -33 60 -49 91 -37 29 11 394 292 394 304 0 4 42 79 93 167 l94 158 247 5
c246 5 248 5 267 29 18 22 19 45 19 450 l0 426 310 530 c171 291 315 548 321
570 26 96 -18 206 -105 260 -44 27 -58 30 -126 30 -68 0 -82 -3 -126 -30 -51
-32 -68 -57 -213 -305 l-61 -105 0 1008 0 1008 -25 24 -24 25 -317 0 -316 0
-125 120 -125 120 -1189 0 -1190 0 -24 -25z m2295 -390 l0 -256 25 -24 24 -25
256 0 255 0 0 -1202 0 -1201 -162 -279 -163 -278 -1197 0 -1198 0 0 205 0 205
28 10 c81 30 142 85 178 163 31 67 31 101 -1 132 -44 45 -105 26 -131 -41 -9
-23 -29 -55 -45 -70 l-29 -28 0 277 0 277 28 10 c81 30 142 85 178 163 31 67
31 101 -1 132 -44 45 -105 26 -131 -41 -9 -23 -29 -55 -45 -70 l-29 -28 0 317
0 317 28 10 c81 30 142 85 178 163 31 67 31 101 -1 132 -44 45 -105 26 -131
-41 -9 -23 -29 -55 -45 -70 l-29 -28 0 317 0 317 28 10 c81 30 142 85 178 163
31 67 31 101 -1 132 -44 45 -105 26 -131 -41 -9 -23 -29 -55 -45 -70 l-29 -28
0 312 0 312 1080 0 1080 0 0 -255z m305 -5 l140 -140 -143 0 -142 0 0 140 c0
77 1 140 3 140 1 0 65 -63 142 -140z m575 -1069 l0 -1088 -77 -133 -78 -134
-5 1122 -5 1122 -100 100 -100 100 183 0 182 0 0 -1089z m-3200 847 l-1 -143
-34 37 c-58 62 -59 150 -3 213 16 19 32 35 34 35 2 0 4 -64 4 -142z m0 -800
l-1 -143 -34 37 c-58 62 -59 150 -3 213 16 19 32 35 34 35 2 0 4 -64 4 -142z
m3815 -603 c14 -13 25 -33 25 -44 0 -26 -41 -111 -54 -111 -5 0 -37 17 -72 37
l-63 36 16 30 c40 78 102 99 148 52z m-3815 -197 l-1 -143 -34 37 c-58 62 -59
150 -3 213 16 19 32 35 34 35 2 0 4 -64 4 -142z m3641 -64 c33 -19 59 -41 59
-47 0 -7 -9 -22 -18 -35 l-18 -24 -65 38 c-35 20 -65 38 -67 39 -5 4 33 65 42
65 4 0 35 -16 67 -36z m-65 -245 c4 -8 -1012 -1756 -1036 -1783 -7 -7 -140 59
-140 70 0 4 1007 1726 1036 1771 l14 22 60 -36 c33 -19 63 -40 66 -44z m-3576
-411 l-1 -143 -34 37 c-58 62 -59 150 -3 213 16 19 32 35 34 35 2 0 4 -64 4
-142z m3200 -808 l0 -230 -135 0 c-74 0 -135 3 -135 6 0 8 261 454 266 454 2
0 4 -103 4 -230z m-752 -92 c-8 -13 -30 -49 -48 -80 l-32 -58 -1024 0 -1024 0
0 80 0 80 1071 0 1071 0 -14 -22z m-55 -587 l28 -18 -33 -25 c-56 -42 -59 -43
-53 -14 3 14 7 37 10 51 6 30 11 31 48 6z"/>
<path d="M1305 4055 c-16 -15 -25 -36 -25 -55 0 -19 9 -40 25 -55 l24 -25 911
0 911 0 24 25 c16 15 25 36 25 55 0 19 -9 40 -25 55 l-24 25 -911 0 -911 0
-24 -25z"/>
<path d="M1305 3575 c-16 -15 -25 -36 -25 -55 0 -19 9 -40 25 -55 l24 -25 911
0 911 0 24 25 c16 15 25 36 25 55 0 19 -9 40 -25 55 l-24 25 -911 0 -911 0
-24 -25z"/>
<path d="M1305 3095 c-16 -15 -25 -36 -25 -55 0 -19 9 -40 25 -55 l24 -25 911
0 911 0 24 25 c16 15 25 36 25 55 0 19 -9 40 -25 55 l-24 25 -911 0 -911 0
-24 -25z"/>
<path d="M1305 2615 c-16 -15 -25 -36 -25 -55 0 -19 9 -40 25 -55 l24 -25 911
0 911 0 24 25 c16 15 25 36 25 55 0 19 -9 40 -25 55 l-24 25 -911 0 -911 0
-24 -25z"/>
<path d="M1305 2135 c-16 -15 -25 -36 -25 -55 0 -19 9 -40 25 -55 l24 -25 351
0 351 0 24 25 c16 15 25 36 25 55 0 19 -9 40 -25 55 l-24 25 -351 0 -351 0
-24 -25z"/>
</g>
</svg>
